<svg xmlns="http://www.w3.org/2000/svg" fill="#24a445" viewBox="0 0 100 100">
  <path d="M50 2.51c22.44 0 40.7 8.94 40.7 19.92S72.44 42.36 50 42.36 9.29 33.42 9.29 22.43 27.55 2.51 50 2.51m0 0C27.51 2.5 9.29 11.42 9.29 22.43S27.51 42.37 50 42.37s40.71-8.92 40.71-19.94S72.48 2.5 50 2.5z"/>
  <ellipse cx="50" cy="22.43" rx="23.75" ry="11.63"/>
  <path d="M50 84.44c-22.49 0-40.71-8.93-40.71-19.93v13.06c0 11 18.22 19.93 40.71 19.93s40.71-8.92 40.71-19.93V64.51c0 11-18.23 19.93-40.71 19.93z"/>
  <path d="M50 63.4c-22.49 0-40.71-8.92-40.71-19.93v13.06c0 11 18.22 19.94 40.71 19.94s40.71-8.93 40.71-19.94V43.47C90.71 54.48 72.48 63.4 50 63.4z"/>
  <path d="M50 42.37c-22.49 0-40.71-8.92-40.71-19.94v13.06c0 11 18.22 19.94 40.71 19.94s40.71-8.93 40.71-19.94V22.43c0 11.02-18.23 19.94-40.71 19.94z"/>
</svg>
